<?xml version="1.0" encoding="utf-8"?>
<!-- Generator: Adobe Illustrator 16.0.3, SVG Export Plug-In . SVG Version: 6.00 Build 0)  -->
<!DOCTYPE svg PUBLIC "-//W3C//DTD SVG 1.1//EN" "http://www.w3.org/Graphics/SVG/1.1/DTD/svg11.dtd">
<svg version="1.1" id="Layer_1" xmlns="http://www.w3.org/2000/svg" xmlns:xlink="http://www.w3.org/1999/xlink" x="0px" y="0px"
	 width="500px" height="500px" viewBox="0 0 500 500" enable-background="new 0 0 500 500" xml:space="preserve">
<polygon fill="#FFFFFF" points="500,175.467 398.227,110.201 398.227,143.434 398.227,207.475 398.227,240.707 "/>
<polygon fill="#FFFFFF" points="101.747,259.293 0,324.533 101.747,389.799 101.747,356.566 101.747,292.525 "/>
<polygon fill="#FFFFFF" points="284.311,143.434 284.311,143.62 250.066,193.441 288.918,250 318.129,207.475 398.227,207.475 
	398.227,143.434 "/>
<polygon fill="#FFFFFF" points="182.004,292.525 101.747,292.525 101.747,356.566 215.636,356.566 215.689,356.594 250.066,306.559 
	211.216,250 "/>
<polygon fill="#FFFFFF" points="398.227,389.799 500,324.533 398.227,259.293 398.227,292.525 398.227,356.566 "/>
<polygon fill="#FFFFFF" points="101.747,110.201 0,175.467 101.747,240.707 101.747,207.475 101.747,143.434 "/>
<polygon fill="#FFFFFF" points="215.689,143.407 215.636,143.434 101.747,143.434 101.747,207.475 182.004,207.475 211.216,250 
	250.066,306.559 284.311,356.38 284.311,356.566 398.227,356.566 398.227,292.525 318.129,292.525 288.918,250 250.066,193.441 "/>
</svg>
