<svg id="Layer_1" data-name="Layer 1" xmlns="http://www.w3.org/2000/svg" viewBox="0 0 686.59 119.4"><defs><style>.cls-1{fill:#fff;}</style></defs><path class="cls-1" d="M38.7,86.1c0,2-.1,3.9-3.2,3.9H28.6c-3.1,0-3.2-1.9-3.2-3.9V22.9H6c-3.5,0-4-.7-4-3.9V13.9c0-2,.1-3.91,3.2-3.91H58.5c3.1,0,3.3,1.9,3.3,3.91V19c0,3.2-.4,3.9-3.9,3.9H38.7Z"/><path class="cls-1" d="M114.4,34.8V13.9c0-2,.2-3.91,3.3-3.91h6.7a3.4,3.4,0,0,1,3.4,3.2V86.8a3.4,3.4,0,0,1-3.4,3.2h-6.7c-3.1,0-3.3-1.9-3.3-3.9V49.5L83.2,62.7V86.1c0,2,0,3.9-3.3,3.9H73.1a3,3,0,0,1-3-3.2l-.2-73.61A3.22,3.22,0,0,1,73.1,10h6.8c3.3,0,3.3,1.9,3.3,3.91V48.2Z"/><path class="cls-1" d="M140.1,86.8l-.2-73.61a3.21,3.21,0,0,1,3.4-3.2h48.3c3.3,0,3.3,1.9,3.3,3.91v5.5c0,3.6-.5,3.9-4,3.9H153.4V41h33.3a3.13,3.13,0,0,1,3.2,3.3v6.8a3.13,3.13,0,0,1-3.2,3.3H153.4V76.7h38.8c3.5,0,4,.3,4,3.9V86c0,2,0,4-3.3,4H143.3A3,3,0,0,1,140.1,86.8Z"/><path class="cls-1" d="M312.6,14.19V87.1c0,2.9-1.6,2.9-3.5,2.9h-5.9c-3.5,0-4-.5-4-4V33.5c-6.9,8.8-13.5,17.3-20.7,25.8l.1-.2c-.9,1.5-1.5,1.5-3,1.5h-3.9c-1.9,0-2.1-.3-3.2-1.6L248,33.5V86c0,3.5-.5,4-4,4h-5.9c-1.9.1-3.3,0-3.3-2.7l-.2-73.21c0-4.1,4.1-4.1,5.8-4.1H244c1.9,0,3,.2,4.2,1.8l25.5,32,25.6-32.31a4.7,4.7,0,0,1,3.9-1.5h3.9C309,10,312.6,9.79,312.6,14.19Z"/><path class="cls-1" d="M334.8,90H328a3,3,0,0,1-3-3.2l-.2-73.61A3.22,3.22,0,0,1,328,10h6.8a3.31,3.31,0,0,1,3.3,3.2V86.8A3.31,3.31,0,0,1,334.8,90Z"/><path class="cls-1" d="M406.8,90h-8.4a3.19,3.19,0,0,1-2.9-1.9v.1L377.8,59.9,359.9,88.2l.1-.3a2.92,2.92,0,0,1-3,2.1h-7.5a3.32,3.32,0,0,1-3.31-3.2c0-.5,1.61-3.4,3.91-7.3,1.1-2,3.9-6.4,8.6-13.6s7.5-11.5,8.7-13.2l2.7-3.9L348.1,15a8,8,0,0,1-.5-1.81,3.31,3.31,0,0,1,3.3-3.2h7.8c1.6,0,2.3,1,3,1.9v-.1L378.2,38.3c8.7-14.8,14.1-23.71,16.1-26.91a3.12,3.12,0,0,1,2.8-1.4h8.1a3.44,3.44,0,0,1,3.2,3.2,7,7,0,0,1-1.2,2.5c-.7,1.41-1.7,3-2.9,4.91L386,48.8l23.7,36.4.2,1.2C409.9,88.4,408.9,90,406.8,90Z"/><path class="cls-1" d="M481.7,35.6l-.1,1c-.4,1.3-1.2,2.9-3.1,2.9h-6.7c-1.7,0-2.4-.9-3.1-2.2-1.1-3.1-1.8-5.5-3.5-7.8a19.24,19.24,0,0,0-15.7-7.8A19.61,19.61,0,0,0,430,41.3V58.7a19.6,19.6,0,0,0,35.4,11.6,21.89,21.89,0,0,0,3.6-8.6l-.1.2a2.84,2.84,0,0,1,3.1-2.7h6.7a3.22,3.22,0,0,1,3.2,3.2,19.09,19.09,0,0,1-1.3,6.2c-4.5,12.8-17.5,22.5-31.1,22.5A32.48,32.48,0,0,1,417,58.7V41.3A32.66,32.66,0,0,1,449.5,8.69C465.8,8.69,478.5,20,481.7,35.6Z"/><path class="cls-1" d="M551.2,90H544c-2.1,0-2.5-1.1-3.2-2.6l-9.1-26.3L507.1,72l-5.5,15.4c-.7,1.6-.91,2.6-3.31,2.6h-6.9a3.31,3.31,0,0,1-3.3-3.2c0-.4,22.91-67.9,25.51-74.21.7-1.5,1.2-2.6,3.2-2.6h8.8c2,0,2.4,1.3,3.1,2.6l25.6,73a6.25,6.25,0,0,1,.1,1.2A2.86,2.86,0,0,1,551.2,90ZM524.6,41.5c-.3-1.1-.7-2-1-3.1-.7-2-1.3-4.1-2.4-7.2l-8.1,22.7,13.8-6.1C525.7,44.6,524.9,42.6,524.6,41.5Z"/><path class="cls-1" d="M610.5,85.2c-4.5,4-10.9,5.7-18.1,5.7h-7.6A24.41,24.41,0,0,1,564,79.6a17.33,17.33,0,0,1-2.8-6.5,33.43,33.43,0,0,1-.7-8.1v.2c0-2,.1-3.9,3.2-3.9h6.8a2.84,2.84,0,0,1,3,2.4,8,8,0,0,1,.3,3.2c0,.5.11,1.4.2,2.7a11.07,11.07,0,0,0,10.81,8.5h7.6c6,0,11.2-3.3,12.1-8.6a13.55,13.55,0,0,0,.2-2c.1-1.3.2-4.3-1.5-5.8-2.8-2.4-8.9-3.4-16.1-5.1-12.81-2.9-26.61-6.8-26.61-20.2V35a24.77,24.77,0,0,1,.6-6.9l-.1.1C563.09,17.1,573.39,9,584.8,9h7.6a26.07,26.07,0,0,1,16.2,5.8c4.5,3.61,7.3,10.51,7,18.21-.1,2-.1,3.9-3.2,3.9h-6.6a3.29,3.29,0,0,1-3.2-3.2c-.3-8.5-3.8-11.7-10.2-11.7h-7.6a11.29,11.29,0,0,0-10.9,8.8v-.1c-.31,1.7-.91,4.7,1.59,7.2a9.78,9.78,0,0,0,4.3,2.6l11.51,3.2c6,1.7,10.3,2.8,12.8,3.7a30.39,30.39,0,0,1,7,3.4c4.1,2.8,7,7.6,7,14.4C618.1,72.8,615,81.2,610.5,85.2Z"/><path class="cls-1" d="M661.3,86.1c0,2-.1,3.9-3.2,3.9h-6.91c-3.09,0-3.2-1.9-3.2-3.9V22.9h-19.4c-3.5,0-4-.7-4-3.9V13.9c0-2,.1-3.91,3.2-3.91H681.1c3.1,0,3.3,1.9,3.3,3.91V19c0,3.2-.4,3.9-3.9,3.9H661.3Z"/></svg>