<svg id="Layer_1" data-name="Layer 1" xmlns="http://www.w3.org/2000/svg" viewBox="0 0 187.77 105"><defs><style>.cls-1{fill:#5e646c;}</style></defs><polygon class="cls-1" points="187.77 24.51 149.55 0 149.55 12.48 149.55 36.53 149.55 49.01 187.77 24.51"/><polygon class="cls-1" points="38.21 55.99 0 80.49 38.21 105 38.21 92.52 38.21 68.47 38.21 55.99"/><polygon class="cls-1" points="106.77 12.48 106.77 12.55 93.91 31.26 108.5 52.5 119.47 36.53 149.55 36.53 149.55 12.48 106.77 12.48"/><polygon class="cls-1" points="68.35 68.47 38.21 68.47 38.21 92.52 80.98 92.52 81 92.53 93.91 73.74 79.32 52.5 68.35 68.47"/><polygon class="cls-1" points="149.55 105 187.77 80.49 149.55 55.99 149.55 68.47 149.55 92.52 149.55 105"/><polygon class="cls-1" points="38.21 0 0 24.51 38.21 49.01 38.21 36.53 38.21 12.48 38.21 0"/><polygon class="cls-1" points="81 12.47 80.98 12.48 38.21 12.48 38.21 36.53 68.35 36.53 79.32 52.5 93.91 73.74 106.77 92.45 106.77 92.52 149.55 92.52 149.55 68.47 119.47 68.47 108.5 52.5 93.91 31.26 81 12.47"/></svg>