<?xml version="1.0" encoding="utf-8"?>
<!-- Generator: Adobe Illustrator 24.3.0, SVG Export Plug-In . SVG Version: 6.00 Build 0)  -->
<svg version="1.1" id="Layer_1" xmlns="http://www.w3.org/2000/svg" xmlns:xlink="http://www.w3.org/1999/xlink" x="0px" y="0px"
	 viewBox="0 0 30 30" style="enable-background:new 0 0 30 30;" xml:space="preserve">
<style type="text/css">
	.st0{fill:#FFFFFF;}
</style>
<path class="st0" d="M12.18,15c0,1.56,1.26,2.82,2.82,2.82s2.82-1.26,2.82-2.82s-1.26-2.82-2.82-2.82S12.18,13.44,12.18,15z
	 M15,26.28c-2.68,0-5.27-0.99-7.25-2.79c-0.31-0.28-0.79-0.25-1.09,0.05l-1.1,1.12c-0.31,0.33-0.3,0.85,0.03,1.17
	c0.01,0.01,0.01,0.01,0.02,0.02C8.2,28.21,11.5,29.5,15,29.5s6.8-1.29,9.39-3.65c0.34-0.3,0.37-0.83,0.07-1.17
	c-0.01-0.01-0.01-0.01-0.02-0.02l-1.1-1.12c-0.29-0.3-0.77-0.34-1.09-0.05C20.27,25.29,17.68,26.28,15,26.28z M10.59,19.52
	l-1.12,1.15c-0.32,0.33-0.31,0.85,0.02,1.17c0.01,0.01,0.03,0.03,0.04,0.04c3.16,2.65,7.77,2.65,10.93,0
	c0.35-0.29,0.4-0.82,0.1-1.17c-0.01-0.01-0.02-0.03-0.04-0.04l-1.12-1.15c-0.27-0.28-0.71-0.32-1.02-0.07
	c-1.98,1.59-4.8,1.59-6.78,0C11.3,19.2,10.86,19.23,10.59,19.52L10.59,19.52z M5.61,4.15c-0.34,0.3-0.37,0.83-0.07,1.17
	c0.01,0.01,0.01,0.01,0.02,0.02l1.1,1.12c0.29,0.3,0.77,0.34,1.09,0.05c4.12-3.72,10.39-3.72,14.51,0c0.31,0.28,0.79,0.25,1.09-0.05
	l1.1-1.12c0.31-0.33,0.3-0.85-0.03-1.17c-0.01-0.01-0.01-0.01-0.02-0.02C21.8,1.79,18.5,0.5,15,0.5S8.2,1.79,5.61,4.15z M9.54,8.13
	c-0.35,0.29-0.4,0.82-0.1,1.17c0.01,0.01,0.02,0.03,0.04,0.04l1.12,1.15c0.27,0.28,0.71,0.32,1.02,0.07c1.98-1.59,4.8-1.59,6.78,0
	c0.31,0.24,0.75,0.21,1.02-0.07l1.12-1.15c0.32-0.33,0.31-0.85-0.02-1.17c-0.01-0.01-0.03-0.03-0.04-0.04
	C17.31,5.48,12.7,5.48,9.54,8.13L9.54,8.13z"/>
</svg>
