<?xml version="1.0" encoding="utf-8"?>
<!-- Generator: Adobe Illustrator 16.0.3, SVG Export Plug-In . SVG Version: 6.00 Build 0)  -->
<!DOCTYPE svg PUBLIC "-//W3C//DTD SVG 1.1//EN" "http://www.w3.org/Graphics/SVG/1.1/DTD/svg11.dtd">
<svg version="1.1" id="Layer_1" xmlns="http://www.w3.org/2000/svg" xmlns:xlink="http://www.w3.org/1999/xlink" x="0px" y="0px"
	 width="35.623px" height="20px" viewBox="232.188 240 35.623 20" enable-background="new 232.188 240 35.623 20"
	 xml:space="preserve">
<polygon fill="#71B292" points="267.812,244.668 260.531,240 260.531,242.377 260.531,246.958 260.531,249.335 "/>
<polygon fill="#71B292" points="239.467,250.665 232.188,255.331 239.467,260 239.467,257.623 239.467,253.042 "/>
<polygon fill="#71B292" points="252.454,242.377 252.454,242.391 250.005,245.954 252.784,250 254.873,246.958 260.603,246.958 
	260.603,242.377 "/>
<polygon fill="#71B292" points="245.136,253.042 239.396,253.042 239.396,257.623 247.542,257.623 247.546,257.625 250.005,254.046 
	247.226,250 "/>
<polygon fill="#71B292" points="260.531,260 267.812,255.331 260.531,250.665 260.531,253.042 260.531,257.623 "/>
<polygon fill="#71B292" points="239.467,240 232.188,244.668 239.467,249.335 239.467,246.958 239.467,242.377 "/>
<polygon fill="#71B292" points="247.546,242.375 247.542,242.377 239.396,242.377 239.396,246.958 245.136,246.958 247.226,250 
	250.005,254.046 252.454,257.609 252.454,257.623 260.603,257.623 260.603,253.042 254.873,253.042 252.784,250 250.005,245.954 "/>
</svg>
