<?xml version="1.0" encoding="utf-8"?>
<!-- Generator: Adobe Illustrator 25.2.1, SVG Export Plug-In . SVG Version: 6.00 Build 0)  -->
<svg version="1.1" id="Layer_1" xmlns="http://www.w3.org/2000/svg" xmlns:xlink="http://www.w3.org/1999/xlink" x="0px" y="0px"
	 viewBox="0 0 984 256" style="enable-background:new 0 0 984 256;" xml:space="preserve">
<style type="text/css">
	.st0{display:none;}
	.st1{display:inline;}
	.st2{clip-path:url(#SVGID_2_);}
	.st3{fill:#FFFFFF;}
	.st4{display:none;fill:#253655;}
</style>
<g class="st0">
	<g class="st1">
		<defs>
			<polyline id="SVGID_1_" points="83.5,73.9 173.5,73.9 173.4,181.9 83.5,181.8 83.5,73.9 			"/>
		</defs>
		<clipPath id="SVGID_2_">
			<use xlink:href="#SVGID_1_"  style="overflow:visible;"/>
		</clipPath>
		<g transform="matrix(1 -2.910383e-11 2.910383e-11 1 -7.629395e-06 0)" class="st2">
			
				<image style="overflow:visible;enable-background:new    ;" width="2000" height="2400" xlink:href="1131B98789C70415.jpg"  transform="matrix(4.500000e-02 1.796916e-05 -1.796916e-05 4.500000e-02 83.536 73.891)">
			</image>
		</g>
	</g>
</g>
<g id="CAddiV.tif" class="st0">
	
		<image style="display:inline;overflow:visible;enable-background:new    ;" width="90" height="105" id="Layer_1_1_" xlink:href="1131B98789C70416.png"  transform="matrix(2.048 0 0 1.983 36.5479 19.8577)">
	</image>
</g>
<circle class="st3" cx="127" cy="126.9" r="112"/>
<path d="M128,0C57.3,0,0,57.3,0,128s57.3,128,128,128s128-57.3,128-128S198.7,0,128,0z M182.3,179.2V167h-41.7V167L128,148.7
	l-12.6,18.3l0,0H73.7v12.2l-37.3-23.9l37.3-23.9v12.2h29.4l10.7-15.6l-10.7-15.6H73.7v12.2l-37.3-23.9l37.3-23.9V89h41.7l0,0
	l12.6,18.3L140.6,89V89h41.7V76.8l37.3,23.9l-37.3,23.9v-12.2H153L142.3,128l10.7,15.6h29.3v-12.2l37.3,23.9L182.3,179.2z"/>
<path class="st4" d="M128,65.5c-34.5,0-62.5,28-62.5,62.5c0,12.6,3.7,24.3,10.2,34.1l-6.3,23.6l23.2-6.2c10.1,6.9,22.3,11,35.4,11
	c34.5,0,62.5-28,62.5-62.5S162.5,65.5,128,65.5z M127,166.4c-5.7,0-10.3-4.6-10.3-10.3s4.6-10.3,10.3-10.3c5.7,0,10.3,4.6,10.3,10.3
	C137.3,161.8,132.7,166.4,127,166.4z M136.1,135.9v5.8h-17.7v-8.4c0-9.6,15.2-15.1,15.2-20.8c0-4-3.7-6.5-7.1-6.5
	c-4.1,0-7.5,3.6-10.7,7.8l-11.1-10.3c6.7-8.5,14.4-13.8,23.9-13.8c12.7,0,22.7,8.9,22.7,23.1C151.2,126.2,136.1,129.6,136.1,135.9z"
	/>
<path class="st4" d="M128,65.5c-34.5,0-62.5,28-62.5,62.5s28,62.5,62.5,62.5s62.5-28,62.5-62.5S162.5,65.5,128,65.5z M138.2,117.9
	c-4.2,0-8,2.3-9.9,6.1l-2.1,4l2.1,4c1.9,3.7,5.7,6,9.9,6h10.5v-6.5c0-1,1.1-1.7,2-1.2l19.6,11.3c0.9,0.5,0.9,1.8,0,2.3l-19.6,11.3
	c-0.9,0.5-2-0.1-2-1.2v-6.5h-10.5c-3.8,0-7.6-1.1-10.8-3.1c-2.6-1.6-4.8-3.8-6.5-6.3c-1.7,2.6-3.9,4.7-6.5,6.3
	c-3.3,2-7,3.1-10.8,3.1H89.9c-2.7,0-4.8-2.2-4.8-4.8s2.2-4.8,4.8-4.8h13.6c4.2,0,8-2.3,9.9-6.1l2.1-4l-2.1-4c-1.9-3.7-5.7-6-9.9-6
	H89.9c-2.7,0-4.8-2.2-4.8-4.8c0-2.7,2.2-4.8,4.8-4.8h13.6c3.8,0,7.6,1.1,10.8,3.1c2.6,1.6,4.8,3.8,6.5,6.3c1.7-2.6,3.9-4.7,6.5-6.3
	c3.3-2,7-3.1,10.8-3.1h10.5v-6.5c0-1,1.1-1.7,2-1.2l19.6,11.3c0.9,0.5,0.9,1.8,0,2.3l-19.6,11.3c-0.9,0.5-2-0.1-2-1.2v-6.5
	L138.2,117.9L138.2,117.9z"/>
<g>
	<path class="st3" d="M338.6,164.1c0,2-0.1,3.9-3.2,3.9h-6.9c-3.1,0-3.2-1.9-3.2-3.9v-63.2h-19.4c-3.5,0-4-0.7-4-3.9v-5.1
		c0-2,0.1-3.9,3.2-3.9h53.3c3.1,0,3.3,1.9,3.3,3.9V97c0,3.2-0.4,3.9-3.9,3.9h-19.2L338.6,164.1L338.6,164.1z"/>
	<path class="st3" d="M414.3,112.8V91.9c0-2,0.2-3.9,3.3-3.9h6.7c1.9,0,3.4,1.6,3.4,3.2v73.6c0,1.6-1.5,3.2-3.4,3.2h-6.7
		c-3.1,0-3.3-1.9-3.3-3.9v-36.6l-31.2,13.2v23.4c0,2,0,3.9-3.3,3.9H373c-1.9,0-3-1.6-3-3.2l-0.2-73.6c0-1.6,1.3-3.2,3.2-3.2h6.8
		c3.3,0,3.3,1.9,3.3,3.9v34.3L414.3,112.8z"/>
	<path class="st3" d="M440,164.8l-0.2-73.6c0-1.9,1.5-3.2,3.4-3.2h48.3c3.3,0,3.3,1.9,3.3,3.9v5.5c0,3.6-0.5,3.9-4,3.9h-37.5V119
		h33.3c1.9,0,3.2,1.4,3.2,3.3v6.8c0,1.9-1.3,3.3-3.2,3.3h-33.3v22.3h38.8c3.5,0,4,0.3,4,3.9v5.4c0,2,0,4-3.3,4h-49.6
		C441.3,168,440,166.7,440,164.8z"/>
	<path class="st3" d="M612.5,92.2v72.9c0,2.9-1.6,2.9-3.5,2.9h-5.9c-3.5,0-4-0.5-4-4v-52.5c-6.9,8.8-13.5,17.3-20.7,25.8l0.1-0.2
		c-0.9,1.5-1.5,1.5-3,1.5h-3.9c-1.9,0-2.1-0.3-3.2-1.6l-20.5-25.5V164c0,3.5-0.5,4-4,4H538c-1.9,0.1-3.3,0-3.3-2.7l-0.2-73.2
		c0-4.1,4.1-4.1,5.8-4.1h3.6c1.9,0,3,0.2,4.2,1.8l25.5,32l25.6-32.3c0.8-1,2.1-1.5,3.9-1.5h3.9C608.9,88,612.5,87.8,612.5,92.2z"/>
	<path class="st3" d="M634.7,168h-6.8c-1.9,0-3-1.6-3-3.2l-0.2-73.6c0-1.6,1.3-3.2,3.2-3.2h6.8c1.9,0,3.3,1.6,3.3,3.2v73.6
		C638,166.4,636.6,168,634.7,168z"/>
	<path class="st3" d="M706.7,168h-8.4c-1.6,0-2.4-1-2.9-1.9v0.1l-17.7-28.3l-17.9,28.3l0.1-0.3c-0.5,1.4-1.5,2.1-3,2.1h-7.5
		c-1.9,0-3.3-1.6-3.3-3.2c0-0.5,1.6-3.4,3.9-7.3c1.1-2,3.9-6.4,8.6-13.6c4.6-7.1,7.5-11.5,8.7-13.2l2.7-3.9L648,93
		c-0.1-0.3-0.5-1.3-0.5-1.8c0-1.6,1.4-3.2,3.3-3.2h7.8c1.6,0,2.3,1,3,1.9v-0.1l16.5,26.5c8.7-14.8,14.1-23.7,16.1-26.9
		c0.6-0.9,1.5-1.4,2.8-1.4h8.1c1.6,0,3.2,1.6,3.2,3.2c0,0.4-0.4,1.2-1.2,2.5c-0.7,1.4-1.7,3-2.9,4.9l-18.3,28.2l23.7,36.4l0.2,1.2
		C709.8,166.4,708.8,168,706.7,168z"/>
	<path class="st3" d="M781.6,113.6l-0.1,1c-0.4,1.3-1.2,2.9-3.1,2.9h-6.7c-1.7,0-2.4-0.9-3.1-2.2c-1.1-3.1-1.8-5.5-3.5-7.8
		c-3.6-4.9-9.3-7.8-15.7-7.8c-10.7,0-19.5,8.8-19.5,19.6v17.4c0,10.8,8.8,19.6,19.5,19.6c6.4,0,12-2.9,15.9-8c2-2.7,2.8-5.3,3.6-8.6
		l-0.1,0.2c0.3-1.8,1.3-2.7,3.1-2.7h6.7c1.9,0,3.2,1.6,3.2,3.2c0,2-0.6,4.3-1.3,6.2c-4.5,12.8-17.5,22.5-31.1,22.5
		c-17.9,0-32.5-14.5-32.5-32.4v-17.4c0-17.9,14.6-32.6,32.5-32.6C765.7,86.7,778.4,98,781.6,113.6z"/>
	<path class="st3" d="M851.1,168h-7.2c-2.1,0-2.5-1.1-3.2-2.6l-9.1-26.3L807,150l-5.5,15.4c-0.7,1.6-0.9,2.6-3.3,2.6h-6.9
		c-1.6,0-3.3-1.3-3.3-3.2c0-0.4,22.9-67.9,25.5-74.2c0.7-1.5,1.2-2.6,3.2-2.6h8.8c2,0,2.4,1.3,3.1,2.6l25.6,73
		c0.1,0.7,0.1,0.8,0.1,1.2C854.3,166.9,853.2,168,851.1,168z M824.5,119.5c-0.3-1.1-0.7-2-1-3.1c-0.7-2-1.3-4.1-2.4-7.2l-8.1,22.7
		l13.8-6.1C825.6,122.6,824.8,120.6,824.5,119.5z"/>
	<path class="st3" d="M910.4,163.2c-4.5,4-10.9,5.7-18.1,5.7h-7.6c-8.7,0-16.5-4.4-20.8-11.3c-1.5-2.2-2.4-4.4-2.8-6.5
		c-0.8-4.1-0.7-5.8-0.7-8.1v0.2c0-2,0.1-3.9,3.2-3.9h6.8c1.6,0,2.6,0.8,3,2.4c0.4,1.3,0.3,1.6,0.3,3.2c0,0.5,0.1,1.4,0.2,2.7
		c1.1,4.9,5.6,8.5,10.8,8.5h7.6c6,0,11.2-3.3,12.1-8.6c0.1-0.7,0.2-1.3,0.2-2c0.1-1.3,0.2-4.3-1.5-5.8c-2.8-2.4-8.9-3.4-16.1-5.1
		c-12.8-2.9-26.6-6.8-26.6-20.2V113c0-2.1-0.1-4.2,0.6-6.9l-0.1,0.1C863,95.1,873.3,87,884.7,87h7.6c6,0,11.7,2.2,16.2,5.8
		c4.5,3.6,7.3,10.5,7,18.2c-0.1,2-0.1,3.9-3.2,3.9h-6.6c-1.9,0-3.1-1.6-3.2-3.2c-0.3-8.5-3.8-11.7-10.2-11.7h-7.6
		c-5.1,0-9.8,3.7-10.9,8.8v-0.1c-0.3,1.7-0.9,4.7,1.6,7.2c1.3,1.3,2.8,2.2,4.3,2.6l11.5,3.2c6,1.7,10.3,2.8,12.8,3.7
		c2.7,0.9,5,2.1,7,3.4c4.1,2.8,7,7.6,7,14.4C918,150.8,914.9,159.2,910.4,163.2z"/>
	<path class="st3" d="M961.2,164.1c0,2-0.1,3.9-3.2,3.9h-6.9c-3.1,0-3.2-1.9-3.2-3.9v-63.2h-19.4c-3.5,0-4-0.7-4-3.9v-5.1
		c0-2,0.1-3.9,3.2-3.9H981c3.1,0,3.3,1.9,3.3,3.9V97c0,3.2-0.4,3.9-3.9,3.9h-19.2L961.2,164.1L961.2,164.1z"/>
</g>
</svg>
