<?xml version="1.0" encoding="utf-8"?>
<!-- Generator: Adobe Illustrator 16.0.3, SVG Export Plug-In . SVG Version: 6.00 Build 0)  -->
<!DOCTYPE svg PUBLIC "-//W3C//DTD SVG 1.1//EN" "http://www.w3.org/Graphics/SVG/1.1/DTD/svg11.dtd">
<svg version="1.1" id="Layer_1" xmlns="http://www.w3.org/2000/svg" xmlns:xlink="http://www.w3.org/1999/xlink" x="0px" y="0px"
	 width="64px" height="64px" viewBox="218.001 218 64 64" enable-background="new 218.001 218 64 64" xml:space="preserve">
<path fill="#525861" d="M280.001,231c0-1.657-1.344-3-3-3h-54c-1.657,0-3,1.343-3,3v3h60V231z M278.001,221c0-1.657-1.344-3-3-3h-50
	c-1.657,0-3,1.343-3,3v3h56V221z M250.001,258.706c-2.079,0-3.75,1.241-3.732,2.762c0.018,1.52,1.688,2.715,3.732,2.715
	s3.716-1.21,3.733-2.715S252.081,258.706,250.001,258.706z M278.001,238h-56c-2.209,0-4,1.791-4,4c0,0.121,0.005,0.242,0.017,0.363
	l3.273,36c0.188,2.06,1.915,3.637,3.983,3.638h49.455c2.068-0.001,3.795-1.578,3.982-3.638l3.273-36
	c0.2-2.2-1.421-4.146-3.621-4.346C278.243,238.006,278.122,238,278.001,238z M250.001,277.111c-11.782,0-21.798-6.816-22.401-15.644
	c-0.635-9.33,9.378-17.292,22.401-17.292s23.036,7.962,22.401,17.292C271.8,270.296,261.783,277.111,250.001,277.111
	L250.001,277.111z"/>
</svg>
