<?xml version="1.0" encoding="utf-8"?>
<!-- Generator: Adobe Illustrator 16.0.3, SVG Export Plug-In . SVG Version: 6.00 Build 0)  -->
<!DOCTYPE svg PUBLIC "-//W3C//DTD SVG 1.1//EN" "http://www.w3.org/Graphics/SVG/1.1/DTD/svg11.dtd">
<svg version="1.1" id="Layer_1" xmlns="http://www.w3.org/2000/svg" xmlns:xlink="http://www.w3.org/1999/xlink" x="0px" y="0px"
	 width="64px" height="64px" viewBox="218 218 64 64" enable-background="new 218 218 64 64" xml:space="preserve">
<path fill="#FFFFFF" d="M276.667,225.111h-53.333c-2.945,0-5.333,2.389-5.333,5.333v39.111c0,2.944,2.389,5.333,5.333,5.333h53.333
	c2.944,0,5.333-2.389,5.333-5.333v-39.111C282,227.5,279.611,225.111,276.667,225.111z M276.667,269.556h-24.979
	c0.101-0.5,0.089,0.399,0.089-2.489c0-3.533-3.344-6.399-7.466-6.399c-1.2,0-2.078,0.889-4.978,0.889
	c-2.989,0-3.711-0.889-4.978-0.889c-4.122,0-7.467,2.866-7.467,6.399c0,2.889-0.022,1.989,0.089,2.489h-3.644v-32h53.333V269.556z
	 M258,260.667h12.444c0.489,0,0.889-0.4,0.889-0.89V258c0-0.489-0.399-0.889-0.889-0.889H258c-0.489,0-0.889,0.399-0.889,0.889
	v1.777C257.111,260.267,257.511,260.667,258,260.667z M258,253.556h12.444c0.489,0,0.889-0.4,0.889-0.889v-1.778
	c0-0.489-0.399-0.889-0.889-0.889H258c-0.489,0-0.889,0.4-0.889,0.889v1.778C257.111,253.155,257.511,253.556,258,253.556z
	 M258,246.444h12.444c0.489,0,0.889-0.4,0.889-0.889v-1.778c0-0.489-0.399-0.889-0.889-0.889H258c-0.489,0-0.889,0.4-0.889,0.889
	v1.778C257.111,246.044,257.511,246.444,258,246.444z M239.333,257.111c3.922,0,7.111-3.189,7.111-7.111
	c0-3.922-3.189-7.111-7.111-7.111c-3.922,0-7.111,3.189-7.111,7.111C232.222,253.922,235.411,257.111,239.333,257.111z"/>
</svg>
