<?xml version="1.0" encoding="utf-8"?>
<!-- Generator: Adobe Illustrator 16.0.3, SVG Export Plug-In . SVG Version: 6.00 Build 0)  -->
<!DOCTYPE svg PUBLIC "-//W3C//DTD SVG 1.1//EN" "http://www.w3.org/Graphics/SVG/1.1/DTD/svg11.dtd">
<svg version="1.1" id="Layer_1" xmlns="http://www.w3.org/2000/svg" xmlns:xlink="http://www.w3.org/1999/xlink" x="0px" y="0px"
	 width="64px" height="63.998px" viewBox="218 218.011 64 63.998" enable-background="new 218 218.011 64 63.998"
	 xml:space="preserve">
<path fill="#525861" d="M220,250.009h32c1.104,0,2-0.896,2-2v-4c0-1.104-0.896-2-2-2h-32c-1.104,0-2,0.896-2,2v4
	C218,249.113,218.896,250.009,220,250.009z M220,234.009h32c1.104,0,2-0.896,2-2v-4c0-1.104-0.896-2-2-2h-32c-1.104,0-2,0.896-2,2v4
	C218,233.113,218.896,234.009,220,234.009z M236,258.009h-16c-1.104,0-2,0.896-2,2v4c0,1.104,0.896,2,2,2h16c1.104,0,2-0.896,2-2v-4
	C238,258.904,237.104,258.009,236,258.009z M276.867,218.175l-12.066,3.564c-1.665,0.523-2.799,2.066-2.801,3.812v37.458
	c-1.932-0.66-3.959-0.998-6-1c-7.732,0-14,4.478-14,10s6.268,10,14,10s14-4.478,14-10v-35.481l9.125-2.674
	c1.704-0.5,2.875-2.062,2.875-3.838v-8.006c-0.001-2.209-1.794-3.999-4.003-3.998C277.615,218.012,277.234,218.067,276.867,218.175z
	"/>
</svg>
