<svg width="8" height="7" viewBox="0 0 8 7" fill="none" xmlns="http://www.w3.org/2000/svg">
  <path
    d="M6.6751 0.201932C6.80459 0.0780252 6.97692 0.00952447 7.15571 0.0108841C7.3345 0.0122438 7.50577 0.0833577 7.63339 0.20922C7.761 0.335082 7.83498 0.505848 7.8397 0.685484C7.84443 0.865121 7.77954 1.03958 7.65872 1.17204L3.99083 5.78237C3.92776 5.85064 3.85164 5.90543 3.76702 5.94347C3.6824 5.9815 3.59101 6.00199 3.49833 6.00372C3.40565 6.00544 3.31358 5.98836 3.22761 5.95351C3.14165 5.91865 3.06356 5.86673 2.99802 5.80085L0.565629 3.35617C0.497891 3.29273 0.44356 3.21623 0.405877 3.13123C0.368195 3.04623 0.347932 2.95448 0.346299 2.86144C0.344665 2.7684 0.361695 2.67598 0.396371 2.5897C0.431046 2.50341 0.482658 2.42503 0.548128 2.35923C0.613597 2.29343 0.691582 2.24156 0.777431 2.20671C0.86328 2.17186 0.955234 2.15474 1.04781 2.15639C1.14038 2.15803 1.23168 2.17839 1.31625 2.21626C1.40082 2.25414 1.47694 2.30874 1.54006 2.37682L3.46501 4.31057L6.65763 0.222259C6.66338 0.215145 6.66952 0.208359 6.67602 0.201932H6.6751Z"
    fill="white" />
</svg>