<svg width="88" height="88" viewBox="0 0 88 88" fill="none" xmlns="http://www.w3.org/2000/svg">
<path d="M0 69.6609V77C0 83.0672 14.7812 88 33 88C51.2188 88 66 83.0672 66 77V69.6609C58.9016 74.6625 45.925 77 33 77C20.075 77 7.09844 74.6625 0 69.6609ZM55 22C73.2188 22 88 17.0672 88 11C88 4.93281 73.2188 0 55 0C36.7812 0 22 4.93281 22 11C22 17.0672 36.7812 22 55 22ZM0 51.6312V60.5C0 66.5672 14.7812 71.5 33 71.5C51.2188 71.5 66 66.5672 66 60.5V51.6312C58.9016 57.475 45.9078 60.5 33 60.5C20.0922 60.5 7.09844 57.475 0 51.6312ZM71.5 53.5219C81.3484 51.6141 88 48.0734 88 44V36.6609C84.0125 39.4797 78.1516 41.4047 71.5 42.5906V53.5219ZM33 27.5C14.7812 27.5 0 33.6531 0 41.25C0 48.8469 14.7812 55 33 55C51.2188 55 66 48.8469 66 41.25C66 33.6531 51.2188 27.5 33 27.5ZM70.6922 37.1766C81.0047 35.3203 88 31.6766 88 27.5V20.1609C81.8984 24.475 71.4141 26.7953 60.3797 27.3453C65.45 29.8031 69.1797 33.1031 70.6922 37.1766Z" fill="#EFEFEF"/>
</svg>
