<svg width="37" height="37" viewBox="0 0 37 37" fill="none" xmlns="http://www.w3.org/2000/svg">
<path d="M33.6169 15.4806H32.375V15.4166H18.5V21.5833H27.2128C25.9417 25.173 22.5261 27.7499 18.5 27.7499C13.3917 27.7499 9.25004 23.6082 9.25004 18.4999C9.25004 13.3916 13.3917 9.24992 18.5 9.24992C20.858 9.24992 23.0033 10.1395 24.6366 11.5925L28.9972 7.23188C26.2438 4.66577 22.5608 3.08325 18.5 3.08325C9.98619 3.08325 3.08337 9.98606 3.08337 18.4999C3.08337 27.0138 9.98619 33.9166 18.5 33.9166C27.0139 33.9166 33.9167 27.0138 33.9167 18.4999C33.9167 17.4662 33.8103 16.4572 33.6169 15.4806Z" fill="#FFC107"/>
<path d="M4.86084 11.3242L9.92599 15.0389C11.2965 11.6457 14.6157 9.24992 18.5 9.24992C20.8579 9.24992 23.0032 10.1395 24.6366 11.5925L28.9972 7.23188C26.2438 4.66577 22.5607 3.08325 18.5 3.08325C12.5784 3.08325 7.44313 6.42636 4.86084 11.3242Z" fill="#FF3D00"/>
<path d="M18.5001 33.9172C22.4822 33.9172 26.1005 32.3933 28.8362 29.915L24.0647 25.8774C22.4649 27.0941 20.51 27.7521 18.5001 27.7505C14.4902 27.7505 11.0854 25.1937 9.80277 21.6255L4.77539 25.4989C7.32685 30.4916 12.5084 33.9172 18.5001 33.9172Z" fill="#4CAF50"/>
<path d="M33.6168 15.4807H32.375V15.4167H18.5V21.5834H27.2127C26.6047 23.2919 25.5095 24.7848 24.0623 25.8777L24.0646 25.8762L28.8361 29.9138C28.4985 30.2206 33.9167 26.2084 33.9167 18.5001C33.9167 17.4664 33.8103 16.4574 33.6168 15.4807Z" fill="#1976D2"/>
</svg>
