<svg width="24" height="24" viewBox="0 0 24 24" fill="none" xmlns="http://www.w3.org/2000/svg">
<path d="M18.0005 17.5V18.75C18.0005 19.3467 17.7634 19.919 17.3415 20.341C16.9195 20.7629 16.3472 21 15.7505 21H8.25049C7.65375 21 7.08146 20.7629 6.6595 20.341C6.23754 19.919 6.00049 19.3467 6.00049 18.75V17.499L4.25049 17.5C3.65375 17.5 3.08145 17.2629 2.6595 16.841C2.23754 16.419 2.00049 15.8467 2.00049 15.25V9.254C2.00049 8.39205 2.3429 7.5654 2.95239 6.9559C3.56188 6.34641 4.38853 6.004 5.25049 6.004L5.99949 6.003L6.00049 5.25C6.00049 4.65326 6.23754 4.08097 6.6595 3.65901C7.08146 3.23705 7.65375 3 8.25049 3H15.7525C16.3492 3 16.9215 3.23705 17.3435 3.65901C17.7654 4.08097 18.0025 4.65326 18.0025 5.25V6.003H18.7525C19.6145 6.00353 20.441 6.34605 21.0507 6.95537C21.6604 7.56469 22.0034 8.39103 22.0045 9.253L22.0075 15.25C22.0076 15.5453 21.9496 15.8378 21.8367 16.1107C21.7238 16.3836 21.5582 16.6316 21.3495 16.8406C21.1407 17.0495 20.8929 17.2153 20.6201 17.3284C20.3473 17.4416 20.0548 17.4999 19.7595 17.5H18.0005ZM15.7505 13.5H8.25049C8.05158 13.5 7.86081 13.579 7.72016 13.7197C7.57951 13.8603 7.50049 14.0511 7.50049 14.25V18.75C7.50049 19.164 7.83649 19.5 8.25049 19.5H15.7505C15.9494 19.5 16.1402 19.421 16.2808 19.2803C16.4215 19.1397 16.5005 18.9489 16.5005 18.75V14.25C16.5005 14.0511 16.4215 13.8603 16.2808 13.7197C16.1402 13.579 15.9494 13.5 15.7505 13.5ZM15.7525 4.5H8.25049C8.05158 4.5 7.86081 4.57902 7.72016 4.71967C7.57951 4.86032 7.50049 5.05109 7.50049 5.25L7.49949 6.003H16.5025V5.25C16.5025 5.05109 16.4235 4.86032 16.2828 4.71967C16.1422 4.57902 15.9514 4.5 15.7525 4.5Z" fill="#23A6F0"/>
</svg>
