<svg width="61" height="61" viewBox="0 0 61 61" fill="none" xmlns="http://www.w3.org/2000/svg">
<g clip-path="url(#clip0)">
<g filter="url(#filter0_ddd)">
<g filter="url(#filter1_d)">
<path d="M30.5 11.2336C19.8765 11.2336 11.2336 19.8765 11.2336 30.5C11.2336 41.1234 19.8765 49.7663 30.5 49.7663C41.1234 49.7663 49.7663 41.1234 49.7663 30.5C49.7663 19.8765 41.1234 11.2336 30.5 11.2336ZM27.1124 39.2183L19.6628 31.7686L22.2 29.2314L27.1637 34.195L38.8261 22.9991L41.3111 25.5878L27.1124 39.2183Z" fill="#27C64B"/>
</g>
<g filter="url(#filter2_d)">
<path d="M61 30.5C61 27.8721 58.3965 25.6213 57.7487 23.1977C57.0784 20.69 58.1881 17.4428 56.9178 15.2471C55.6291 13.0199 52.2501 12.3651 50.4425 10.5575C48.6349 8.75003 47.9801 5.37087 45.7529 4.08222C43.5572 2.81186 40.31 3.92146 37.8023 3.25118C35.3786 2.6035 33.1279 0 30.5 0C27.8721 0 25.6214 2.6035 23.1977 3.2513C20.69 3.92158 17.4428 2.81186 15.2472 4.08222C13.02 5.37087 12.3652 8.74991 10.5577 10.5575C8.75015 12.3651 5.37099 13.0199 4.08234 15.2471C2.81198 17.4428 3.9217 20.69 3.25142 23.1977C2.6035 25.6214 0 27.8721 0 30.5C0 33.1279 2.6035 35.3786 3.2513 37.8023C3.92158 40.31 2.81186 43.5572 4.08222 45.7528C5.37087 47.98 8.74991 48.6348 10.5575 50.4423C12.3651 52.2498 13.0199 55.629 15.2471 56.9177C17.4428 58.188 20.69 57.0784 23.1977 57.7487C25.6214 58.3965 27.8721 61 30.5 61C33.1279 61 35.3786 58.3965 37.8023 57.7487C40.31 57.0784 43.5572 58.1881 45.7528 56.9178C47.98 55.6291 48.6348 52.2501 50.4423 50.4425C52.2498 48.6349 55.629 47.9801 56.9177 45.7529C58.188 43.5572 57.0783 40.31 57.7486 37.8023C58.3965 35.3786 61 33.1279 61 30.5ZM30.5 53.3545C17.898 53.3545 7.64545 43.102 7.64545 30.5C7.64545 17.898 17.898 7.64545 30.5 7.64545C43.102 7.64545 53.3545 17.898 53.3545 30.5C53.3545 43.102 43.102 53.3545 30.5 53.3545Z" fill="#27C64B"/>
</g>
</g>
</g>
<defs>
<filter id="filter0_ddd" x="-4" y="0" width="69" height="69" filterUnits="userSpaceOnUse" color-interpolation-filters="sRGB">
<feFlood flood-opacity="0" result="BackgroundImageFix"/>
<feColorMatrix in="SourceAlpha" type="matrix" values="0 0 0 0 0 0 0 0 0 0 0 0 0 0 0 0 0 0 127 0" result="hardAlpha"/>
<feOffset dy="4"/>
<feGaussianBlur stdDeviation="2"/>
<feComposite in2="hardAlpha" operator="out"/>
<feColorMatrix type="matrix" values="0 0 0 0 0 0 0 0 0 0 0 0 0 0 0 0 0 0 0.25 0"/>
<feBlend mode="normal" in2="BackgroundImageFix" result="effect1_dropShadow"/>
<feColorMatrix in="SourceAlpha" type="matrix" values="0 0 0 0 0 0 0 0 0 0 0 0 0 0 0 0 0 0 127 0" result="hardAlpha"/>
<feOffset dy="4"/>
<feGaussianBlur stdDeviation="2"/>
<feComposite in2="hardAlpha" operator="out"/>
<feColorMatrix type="matrix" values="0 0 0 0 0 0 0 0 0 0 0 0 0 0 0 0 0 0 0.25 0"/>
<feBlend mode="normal" in2="effect1_dropShadow" result="effect2_dropShadow"/>
<feColorMatrix in="SourceAlpha" type="matrix" values="0 0 0 0 0 0 0 0 0 0 0 0 0 0 0 0 0 0 127 0" result="hardAlpha"/>
<feOffset dy="4"/>
<feGaussianBlur stdDeviation="2"/>
<feComposite in2="hardAlpha" operator="out"/>
<feColorMatrix type="matrix" values="0 0 0 0 0 0 0 0 0 0 0 0 0 0 0 0 0 0 0.25 0"/>
<feBlend mode="normal" in2="effect2_dropShadow" result="effect3_dropShadow"/>
<feBlend mode="normal" in="SourceGraphic" in2="effect3_dropShadow" result="shape"/>
</filter>
<filter id="filter1_d" x="7.23364" y="11.2336" width="46.5326" height="46.5326" filterUnits="userSpaceOnUse" color-interpolation-filters="sRGB">
<feFlood flood-opacity="0" result="BackgroundImageFix"/>
<feColorMatrix in="SourceAlpha" type="matrix" values="0 0 0 0 0 0 0 0 0 0 0 0 0 0 0 0 0 0 127 0" result="hardAlpha"/>
<feOffset dy="4"/>
<feGaussianBlur stdDeviation="2"/>
<feComposite in2="hardAlpha" operator="out"/>
<feColorMatrix type="matrix" values="0 0 0 0 0 0 0 0 0 0 0 0 0 0 0 0 0 0 0.25 0"/>
<feBlend mode="normal" in2="BackgroundImageFix" result="effect1_dropShadow"/>
<feBlend mode="normal" in="SourceGraphic" in2="effect1_dropShadow" result="shape"/>
</filter>
<filter id="filter2_d" x="-4" y="0" width="69" height="69" filterUnits="userSpaceOnUse" color-interpolation-filters="sRGB">
<feFlood flood-opacity="0" result="BackgroundImageFix"/>
<feColorMatrix in="SourceAlpha" type="matrix" values="0 0 0 0 0 0 0 0 0 0 0 0 0 0 0 0 0 0 127 0" result="hardAlpha"/>
<feOffset dy="4"/>
<feGaussianBlur stdDeviation="2"/>
<feComposite in2="hardAlpha" operator="out"/>
<feColorMatrix type="matrix" values="0 0 0 0 0 0 0 0 0 0 0 0 0 0 0 0 0 0 0.25 0"/>
<feBlend mode="normal" in2="BackgroundImageFix" result="effect1_dropShadow"/>
<feBlend mode="normal" in="SourceGraphic" in2="effect1_dropShadow" result="shape"/>
</filter>
<clipPath id="clip0">
<rect width="61" height="61" fill="white"/>
</clipPath>
</defs>
</svg>
